<?xml version="1.0" encoding="utf-8"?>
<!-- Generator: Adobe Illustrator 27.0.0, SVG Export Plug-In . SVG Version: 6.00 Build 0)  -->
<svg version="1.1" id="Layer_5" xmlns="http://www.w3.org/2000/svg" xmlns:xlink="http://www.w3.org/1999/xlink" x="0px" y="0px"
	 viewBox="0 0 840.8 946.9" style="enable-background:new 0 0 840.8 946.9;" xml:space="preserve">
<style type="text/css">
	.st0{fill:none;stroke:#000000;stroke-width:28;stroke-miterlimit:10;}
</style>
<path class="st0" d="M434.5,469.7c0,0-156,1.5-176.3-1.9c-20.2-3.4-61.7-7-118.6-50.9S63.8,300.2,63.8,259.1
	c10.9-6.2,41.1-21.6,61.6-24.7s57.2-10.8,117.1,18.8c59.8,29.5,98.7,83.8,98.7,83.8L434.5,469.7L434.5,469.7z"/>
<path class="st0" d="M435.5,470.6C435.5,470.6,435.5,470.5,435.5,470.6c-4.2-0.1-156.3-1.5-176.2,1.9s-61.7,7-118.7,50.9
	S64.8,640,64.8,681.1c10.9,6.2,41.1,21.7,61.6,24.7c20.5,3,57.2,10.8,117.1-18.8c59.8-29.5,98.7-83.8,98.7-83.8L435.5,470.6
	L435.5,470.6z"/>
<path class="st0" d="M438.4,469.7c0,0,156.1-1.5,176.3,1.9c20.2,3.4,61.7,7,118.7,50.9c57,43.8,75.8,116.7,75.8,157.8
	c-10.9,6.2-41.1,21.7-61.6,24.7c-20.5,3-57.2,10.8-117.1-18.8c-59.8-29.5-98.7-83.8-98.7-83.8L438.4,469.7L438.4,469.7z"/>
<path class="st0" d="M438.4,469.6C438.4,469.6,438.4,469.7,438.4,469.6c4.2,0.1,156.3,1.5,176.2-1.9s61.7-7,118.7-50.9
	s75.8-116.7,75.8-157.8c-10.9-6.2-41.1-21.6-61.6-24.7c-20.5-3-57.2-10.8-117.1,18.8c-59.8,29.5-98.7,83.8-98.7,83.8L438.4,469.6
	L438.4,469.6z"/>
<path class="st0" d="M528,815.7c50.3-75.4,32-171.1-6-225.8c-38-54.7-85-119.1-85-119.1l-0.4,0.4c0,0-47,64.4-85,119.1
	c-38,54.7-56.3,150.4-6,225.8c32,48,91.2,82,91.2,82S496,863.7,528,815.7z"/>
<path class="st0" d="M528,125.4c50.3,75.4,32,171.1-6,225.8c-38,54.7-85,119.1-85,119.1l-0.4-0.4c0,0-47-64.4-85-119.1
	s-56.3-150.4-6-225.9c32-48,91.2-82,91.2-82S496,77.4,528,125.4L528,125.4z"/>
</svg>
